<svg width="41" height="38" viewBox="0 0 41 38" fill="none" xmlns="http://www.w3.org/2000/svg">
<g opacity="0.8">
<path fill-rule="evenodd" clip-rule="evenodd" d="M24.384 16.2124C22.8826 17.335 21.019 18 19 18C14.0295 18 10 13.9705 10 9C10 4.02954 14.0295 0 19 0C23.9705 0 28 4.02954 28 9C28 11.2307 27.1885 13.272 25.8445 14.8445L30.2915 19.2915C30.4868 19.4868 30.4868 19.8035 30.2915 19.9985L29.5845 20.7058C29.3892 20.9011 29.0725 20.9011 28.8774 20.7058L24.384 16.2124ZM26 9C26 12.866 22.866 16 19 16C15.134 16 12 12.866 12 9C12 5.13403 15.134 2 19 2C22.866 2 26 5.13403 26 9Z" fill="white"/>
<path d="M3.56 34.5H1.28V27.83H3.56C4.58 27.83 5.40333 28.1467 6.03 28.78C6.66333 29.4133 6.98 30.21 6.98 31.17C6.98 32.1367 6.66333 32.9333 6.03 33.56C5.40333 34.1867 4.58 34.5 3.56 34.5ZM3.56 33.76C4.34667 33.76 4.97 33.5133 5.43 33.02C5.89 32.5267 6.12 31.91 6.12 31.17C6.12 30.4233 5.89333 29.8033 5.44 29.31C4.98667 28.8167 4.36 28.57 3.56 28.57H2.11V33.76H3.56ZM8.77195 28.98C8.63862 28.98 8.52195 28.9333 8.42195 28.84C8.32195 28.74 8.27195 28.62 8.27195 28.48C8.27195 28.34 8.32195 28.22 8.42195 28.12C8.52195 28.02 8.63862 27.97 8.77195 27.97C8.91195 27.97 9.03195 28.02 9.13195 28.12C9.23195 28.22 9.28195 28.34 9.28195 28.48C9.28195 28.62 9.23195 28.74 9.13195 28.84C9.03195 28.9333 8.91195 28.98 8.77195 28.98ZM9.15195 34.5H8.40195V29.67H9.15195V34.5ZM12.328 34.62C11.508 34.62 10.858 34.3667 10.378 33.86L10.768 33.32C10.9347 33.5133 11.1614 33.6767 11.448 33.81C11.7414 33.9433 12.0447 34.01 12.358 34.01C12.718 34.01 12.998 33.9333 13.198 33.78C13.398 33.6267 13.498 33.4267 13.498 33.18C13.498 32.9667 13.3947 32.8 13.188 32.68C12.9814 32.5533 12.7314 32.46 12.438 32.4C12.1514 32.3333 11.8614 32.26 11.568 32.18C11.2747 32.0933 11.0247 31.95 10.818 31.75C10.6114 31.5433 10.508 31.2733 10.508 30.94C10.508 30.5467 10.668 30.2167 10.988 29.95C11.3147 29.6833 11.7547 29.55 12.308 29.55C13.0347 29.55 13.6314 29.7833 14.098 30.25L13.748 30.77C13.408 30.3633 12.928 30.16 12.308 30.16C11.9814 30.16 11.7214 30.2333 11.528 30.38C11.3347 30.52 11.238 30.7 11.238 30.92C11.238 31.1133 11.3414 31.2667 11.548 31.38C11.7547 31.4867 12.0014 31.5733 12.288 31.64C12.5814 31.7 12.8747 31.7733 13.168 31.86C13.4614 31.9467 13.7114 32.1 13.918 32.32C14.1247 32.5333 14.228 32.8133 14.228 33.16C14.228 33.5867 14.0614 33.9367 13.728 34.21C13.3947 34.4833 12.928 34.62 12.328 34.62ZM17.7265 34.62C17.0132 34.62 16.4332 34.38 15.9865 33.9C15.5398 33.4133 15.3165 32.8067 15.3165 32.08C15.3165 31.3533 15.5398 30.75 15.9865 30.27C16.4332 29.79 17.0132 29.55 17.7265 29.55C18.4732 29.55 19.0632 29.83 19.4965 30.39L18.9965 30.85C18.6898 30.43 18.2798 30.22 17.7665 30.22C17.2598 30.22 16.8532 30.3933 16.5465 30.74C16.2465 31.0867 16.0965 31.5333 16.0965 32.08C16.0965 32.6267 16.2465 33.0767 16.5465 33.43C16.8532 33.7767 17.2598 33.95 17.7665 33.95C18.2732 33.95 18.6832 33.74 18.9965 33.32L19.4965 33.78C19.0632 34.34 18.4732 34.62 17.7265 34.62ZM24.5377 33.89C24.1043 34.3767 23.5277 34.62 22.8077 34.62C22.0877 34.62 21.5077 34.3767 21.0677 33.89C20.6343 33.4033 20.4177 32.8 20.4177 32.08C20.4177 31.36 20.6343 30.76 21.0677 30.28C21.5077 29.7933 22.0877 29.55 22.8077 29.55C23.5277 29.55 24.1043 29.7933 24.5377 30.28C24.9777 30.76 25.1977 31.36 25.1977 32.08C25.1977 32.8 24.9777 33.4033 24.5377 33.89ZM21.6277 33.41C21.921 33.77 22.3143 33.95 22.8077 33.95C23.301 33.95 23.691 33.77 23.9777 33.41C24.2643 33.0433 24.4077 32.6 24.4077 32.08C24.4077 31.56 24.2643 31.12 23.9777 30.76C23.691 30.4 23.301 30.22 22.8077 30.22C22.3143 30.22 21.921 30.4033 21.6277 30.77C21.341 31.13 21.1977 31.5667 21.1977 32.08C21.1977 32.6 21.341 33.0433 21.6277 33.41ZM28.6803 34.5H27.8603L25.8503 29.67H26.6603L28.2703 33.63L29.8703 29.67H30.6903L28.6803 34.5ZM33.8027 34.62C33.0827 34.62 32.4927 34.3867 32.0327 33.92C31.5727 33.4467 31.3427 32.8333 31.3427 32.08C31.3427 31.3733 31.5693 30.7767 32.0227 30.29C32.476 29.7967 33.0427 29.55 33.7227 29.55C34.436 29.55 34.9993 29.7967 35.4127 30.29C35.8327 30.7767 36.0427 31.3933 36.0427 32.14V32.33H32.1327C32.166 32.8033 32.3393 33.2 32.6527 33.52C32.966 33.84 33.3727 34 33.8727 34C34.4727 34 34.9693 33.7967 35.3627 33.39L35.7227 33.88C35.2293 34.3733 34.5893 34.62 33.8027 34.62ZM35.3027 31.78C35.296 31.3667 35.156 30.9967 34.8827 30.67C34.6093 30.3367 34.2193 30.17 33.7127 30.17C33.2327 30.17 32.8527 30.3333 32.5727 30.66C32.2993 30.9867 32.1527 31.36 32.1327 31.78H35.3027ZM38.1574 34.5H37.4074V29.67H38.1574V30.45C38.6041 29.8633 39.1408 29.57 39.7674 29.57V30.34C39.6741 30.32 39.5741 30.31 39.4674 30.31C39.2408 30.31 38.9941 30.39 38.7274 30.55C38.4608 30.71 38.2708 30.8867 38.1574 31.08V34.5Z" fill="white"/>
</g>
</svg>
