<svg width="36" height="33" viewBox="0 0 36 33" fill="none" xmlns="http://www.w3.org/2000/svg">
<path d="M16.0611 31.818C17.0718 32.5395 18.4282 32.5395 19.4389 31.818C24.4905 28.2118 29.3281 24.063 32.6744 18.7538C34.3509 16.0939 35.0537 13.9429 35.3301 12.184C35.4416 11.5647 35.5 10.9257 35.5 10.2725C35.5 4.59918 31.097 0 25.6655 0C22.4197 0 19.5411 1.64254 17.75 4.17528C15.9589 1.64254 13.0803 0 9.83446 0C4.40304 0 0 4.59918 0 10.2725C0 10.9257 0.0583629 11.5647 0.169939 12.184C0.446337 13.9429 1.14906 16.0939 2.82555 18.7538C6.17194 24.063 11.0095 28.2118 16.0611 31.818Z" fill="#FBFBFB"/>
</svg>
