<svg width="29" height="38" viewBox="0 0 29 38" fill="none" xmlns="http://www.w3.org/2000/svg">
<path fill-rule="evenodd" clip-rule="evenodd" d="M14.6011 0.173834C14.323 -0.0579436 13.919 -0.0579458 13.6408 0.173834L2.86181 9.15635C2.14329 9.75511 2.5667 10.9246 3.50199 10.9246H5.14534L5.55034 19.0244C5.60356 20.0889 6.48209 20.9246 7.54784 20.9246H12.371C12.7852 20.9246 13.121 20.5888 13.121 20.1746V13.9246C13.121 13.6484 13.3448 13.4246 13.621 13.4246H14.621C14.8971 13.4246 15.121 13.6484 15.121 13.9246V20.1746C15.121 20.5888 15.4568 20.9246 15.871 20.9246H20.6941C21.7598 20.9246 22.6384 20.0889 22.6916 19.0244L23.0966 10.9246H24.7399C25.6752 10.9246 26.0986 9.75511 25.3801 9.15635L14.6011 0.173834Z" fill="white"/>
<path d="M7.02 34.5H5.85V31.59H2.38V34.5H1.21V27.83H2.38V30.56H5.85V27.83H7.02V34.5ZM10.7366 34.62C9.9899 34.62 9.3899 34.3767 8.93656 33.89C8.48323 33.3967 8.25656 32.7933 8.25656 32.08C8.25656 31.3667 8.48323 30.7667 8.93656 30.28C9.3899 29.7933 9.9899 29.55 10.7366 29.55C11.4899 29.55 12.0932 29.7933 12.5466 30.28C12.9999 30.7667 13.2266 31.3667 13.2266 32.08C13.2266 32.8 12.9999 33.4033 12.5466 33.89C12.0932 34.3767 11.4899 34.62 10.7366 34.62ZM10.7366 33.69C11.1699 33.69 11.5099 33.5367 11.7566 33.23C12.0099 32.9167 12.1366 32.5333 12.1366 32.08C12.1366 31.6333 12.0099 31.2567 11.7566 30.95C11.5099 30.6367 11.1699 30.48 10.7366 30.48C10.3099 30.48 9.9699 30.6367 9.71656 30.95C9.4699 31.2567 9.34656 31.6333 9.34656 32.08C9.34656 32.5333 9.4699 32.9167 9.71656 33.23C9.9699 33.5367 10.3099 33.69 10.7366 33.69ZM21.409 34.5H20.359V31.35C20.359 30.77 20.0957 30.48 19.569 30.48C19.349 30.48 19.1357 30.5433 18.929 30.67C18.7223 30.7967 18.5623 30.9467 18.449 31.12V34.5H17.399V31.35C17.399 30.77 17.1323 30.48 16.599 30.48C16.3857 30.48 16.1757 30.5433 15.969 30.67C15.769 30.7967 15.609 30.95 15.489 31.13V34.5H14.439V29.67H15.489V30.33C15.609 30.15 15.8157 29.9767 16.109 29.81C16.409 29.6367 16.7257 29.55 17.059 29.55C17.759 29.55 18.199 29.8467 18.379 30.44C18.5323 30.2 18.759 29.9933 19.059 29.82C19.359 29.64 19.679 29.55 20.019 29.55C20.9457 29.55 21.409 30.0367 21.409 31.01V34.5ZM25.1491 34.62C24.4157 34.62 23.8091 34.3867 23.3291 33.92C22.8557 33.4467 22.6191 32.8333 22.6191 32.08C22.6191 31.3733 22.8491 30.7767 23.3091 30.29C23.7757 29.7967 24.3624 29.55 25.0691 29.55C25.7824 29.55 26.3557 29.7967 26.7891 30.29C27.2291 30.7833 27.4491 31.4133 27.4491 32.18V32.43H23.7191C23.7591 32.81 23.9157 33.1267 24.1891 33.38C24.4624 33.6333 24.8191 33.76 25.2591 33.76C25.5057 33.76 25.7524 33.7133 25.9991 33.62C26.2524 33.5267 26.4624 33.3967 26.6291 33.23L27.1091 33.92C26.6224 34.3867 25.9691 34.62 25.1491 34.62ZM26.4291 31.69C26.4157 31.3567 26.2924 31.06 26.0591 30.8C25.8324 30.54 25.5024 30.41 25.0691 30.41C24.6557 30.41 24.3324 30.54 24.0991 30.8C23.8657 31.0533 23.7357 31.35 23.7091 31.69H26.4291Z" fill="white"/>
</svg>
