<svg width="26" height="37" viewBox="0 0 26 37" fill="none" xmlns="http://www.w3.org/2000/svg">
<g opacity="0.8">
<path d="M9.5 8C9.22386 8 9 8.22386 9 8.5V9.5C9 9.77614 9.22386 10 9.5 10H16.5C16.7761 10 17 9.77614 17 9.5V8.5C17 8.22386 16.7761 8 16.5 8H9.5Z" fill="white"/>
<path fill-rule="evenodd" clip-rule="evenodd" d="M5 0C3.89543 0 3 0.895431 3 2V15C3 16.1046 3.89543 17 5 17H9.54007L12.2379 20.1759C12.6372 20.6461 13.3628 20.6461 13.7621 20.1759L16.4599 17H21C22.1046 17 23 16.1046 23 15V2C23 0.89543 22.1046 0 21 0H5ZM5 15V2H21V15H16.0037C15.7096 15 15.4305 15.1294 15.2405 15.3538L13 18L10.7595 15.3538C10.5695 15.1294 10.2904 15 9.99633 15H5Z" fill="white"/>
<path d="M2.37641 33.5H1.54641V26.83H2.37641V33.5ZM8.06898 33.5H7.31898V30.34C7.31898 29.9333 7.22565 29.6467 7.03898 29.48C6.85232 29.3067 6.58565 29.22 6.23898 29.22C5.95898 29.22 5.68565 29.2933 5.41898 29.44C5.15898 29.5867 4.95565 29.7633 4.80898 29.97V33.5H4.05898V28.67H4.80898V29.37C4.99565 29.15 5.24565 28.96 5.55898 28.8C5.87232 28.6333 6.19565 28.55 6.52898 28.55C7.55565 28.55 8.06898 29.07 8.06898 30.11V33.5ZM10.4668 32.19C10.6001 32.4033 10.8001 32.5833 11.0668 32.73C11.3401 32.8767 11.6201 32.95 11.9068 32.95C12.3868 32.95 12.7668 32.7767 13.0468 32.43C13.3268 32.0833 13.4668 31.6367 13.4668 31.09C13.4668 30.5433 13.3268 30.0967 13.0468 29.75C12.7668 29.3967 12.3868 29.22 11.9068 29.22C11.6201 29.22 11.3401 29.2967 11.0668 29.45C10.8001 29.5967 10.6001 29.78 10.4668 30V32.19ZM10.4668 33.5H9.7168V26.83H10.4668V29.4C10.8868 28.8333 11.4301 28.55 12.0968 28.55C12.7301 28.55 13.2468 28.7833 13.6468 29.25C14.0468 29.71 14.2468 30.3233 14.2468 31.09C14.2468 31.8633 14.0468 32.48 13.6468 32.94C13.2535 33.3933 12.7368 33.62 12.0968 33.62C11.4235 33.62 10.8801 33.34 10.4668 32.78V33.5ZM19.4587 32.89C19.0254 33.3767 18.4487 33.62 17.7287 33.62C17.0087 33.62 16.4287 33.3767 15.9887 32.89C15.5554 32.4033 15.3387 31.8 15.3387 31.08C15.3387 30.36 15.5554 29.76 15.9887 29.28C16.4287 28.7933 17.0087 28.55 17.7287 28.55C18.4487 28.55 19.0254 28.7933 19.4587 29.28C19.8987 29.76 20.1187 30.36 20.1187 31.08C20.1187 31.8 19.8987 32.4033 19.4587 32.89ZM16.5487 32.41C16.8421 32.77 17.2354 32.95 17.7287 32.95C18.2221 32.95 18.6121 32.77 18.8987 32.41C19.1854 32.0433 19.3287 31.6 19.3287 31.08C19.3287 30.56 19.1854 30.12 18.8987 29.76C18.6121 29.4 18.2221 29.22 17.7287 29.22C17.2354 29.22 16.8421 29.4033 16.5487 29.77C16.2621 30.13 16.1187 30.5667 16.1187 31.08C16.1187 31.6 16.2621 32.0433 16.5487 32.41ZM25.1203 33.5H24.2503L22.8003 31.52L21.3503 33.5H20.4903L22.3403 31.02L20.5903 28.67H21.4603L22.8003 30.51L24.1403 28.67H25.0103L23.2603 31.02L25.1203 33.5Z" fill="white"/>
</g>
</svg>
