<svg width="19" height="38" viewBox="0 0 19 38" fill="none" xmlns="http://www.w3.org/2000/svg">
<g opacity="0.8">
<path fill-rule="evenodd" clip-rule="evenodd" d="M15.3582 5.75C15.3582 8.92564 12.7838 11.5 9.60815 11.5C6.43252 11.5 3.85815 8.92564 3.85815 5.75C3.85815 2.57436 6.43252 0 9.60815 0C12.7838 0 15.3582 2.57436 15.3582 5.75ZM13.3582 5.75C13.3582 7.82107 11.6792 9.5 9.60815 9.5C7.53709 9.5 5.85815 7.82107 5.85815 5.75C5.85815 3.67893 7.53709 2 9.60815 2C11.6792 2 13.3582 3.67893 13.3582 5.75Z" fill="white"/>
<path d="M0.520516 19.7228C0.445589 19.9683 0.582491 20.225 0.823674 20.3128L1.75686 20.6525C2.04011 20.7555 2.34835 20.5856 2.43676 20.2975C3.37768 17.2301 6.23247 15 9.60814 15C12.9838 15 15.8386 17.2301 16.7796 20.2975C16.868 20.5856 17.1762 20.7555 17.4595 20.6525L18.3926 20.3128C18.6338 20.225 18.7707 19.9683 18.6958 19.7228C17.5079 15.831 13.8886 13 9.60814 13C5.32765 13 1.70838 15.831 0.520516 19.7228Z" fill="white"/>
<path d="M10.3746 34.5H9.54465V29.01L7.27465 34.5H6.93465L4.67465 29.01V34.5H3.84465V27.83H5.03465L7.10465 32.85L9.18465 27.83H10.3746V34.5ZM14.2306 34.62C13.5106 34.62 12.9206 34.3867 12.4606 33.92C12.0006 33.4467 11.7706 32.8333 11.7706 32.08C11.7706 31.3733 11.9973 30.7767 12.4506 30.29C12.9039 29.7967 13.4706 29.55 14.1506 29.55C14.8639 29.55 15.4273 29.7967 15.8406 30.29C16.2606 30.7767 16.4706 31.3933 16.4706 32.14V32.33H12.5606C12.5939 32.8033 12.7673 33.2 13.0806 33.52C13.3939 33.84 13.8006 34 14.3006 34C14.9006 34 15.3973 33.7967 15.7906 33.39L16.1506 33.88C15.6573 34.3733 15.0173 34.62 14.2306 34.62ZM15.7306 31.78C15.7239 31.3667 15.5839 30.9967 15.3106 30.67C15.0373 30.3367 14.6473 30.17 14.1406 30.17C13.6606 30.17 13.2806 30.3333 13.0006 30.66C12.7273 30.9867 12.5806 31.36 12.5606 31.78H15.7306Z" fill="white"/>
</g>
</svg>
