<svg width="43" height="56" viewBox="0 0 43 56" fill="none" xmlns="http://www.w3.org/2000/svg">
<g opacity="0.9">
<g filter="url(#filter0_d_4_1153)">
<path d="M37.9988 19.0845C38.4285 18.6965 38.4399 18.0257 38.0236 17.6233L24.7382 4.78295C24.1035 4.16949 23.0432 4.61928 23.0432 5.50199V10.8621C18.0772 10.7853 14.3463 12.0842 11.5737 14.0746C8.75779 16.0962 6.9636 18.807 5.858 21.4345C4.75341 24.0595 4.32774 26.6203 4.25995 28.3761C4.22652 29.242 4.27816 29.9566 4.40223 30.3933C4.43394 30.5048 4.47678 30.622 4.53837 30.7255C4.59258 30.8167 4.70727 30.9754 4.91565 31.0417C5.16639 31.1214 5.37921 31.0191 5.50256 30.9132C5.61389 30.8176 5.6887 30.6943 5.74047 30.5908L5.74705 30.5777L5.75234 30.5653L5.75284 30.5641L5.75411 30.5613L5.76432 30.5391C5.77418 30.518 5.79023 30.4845 5.81294 30.44C5.85837 30.3509 5.93042 30.2173 6.03287 30.049C6.23783 29.7123 6.56409 29.237 7.04199 28.6994C7.99659 27.6255 9.55921 26.2993 11.979 25.3314C13.3564 24.7805 15.6523 24.5297 17.9033 24.4891C20.0514 24.4504 22.0549 24.6041 23.0432 24.822V30.3392C23.0432 31.2058 24.0703 31.6622 24.7134 31.0814L37.9988 19.0845Z" fill="#FBFBFB"/>
<path d="M33.906 17.6574C34.8657 16.5418 33.906 14.9506 33.906 14.9506L32.25 12.0469L24.7382 4.78295C24.1035 4.16949 23.0432 4.61928 23.0432 5.50199V10.8621C18.0772 10.7853 14.3463 12.0842 11.5737 14.0746C8.75779 16.0962 6.9636 18.807 5.858 21.4345C4.75341 24.0595 4.32774 26.6203 4.25995 28.3761C4.22652 29.242 4.27816 29.9566 4.40223 30.3933C4.43394 30.5048 4.47678 30.622 4.53837 30.7255C4.59258 30.8167 4.70727 30.9754 4.91565 31.0417C5.16639 31.1214 5.37921 31.0191 5.50256 30.9132C5.61389 30.8176 5.6887 30.6943 5.74047 30.5908L5.74705 30.5777L5.75234 30.5653L5.75284 30.5641L5.75411 30.5613L5.76432 30.5391C5.77418 30.518 5.79023 30.4845 5.81294 30.44C5.85837 30.3509 5.93042 30.2173 6.03287 30.049C6.23783 29.7123 6.56409 29.237 7.04199 28.6994C7.99659 27.6255 13.2932 23.8672 16.2932 22.3672C18.7932 20.8672 23.0432 19.8672 23.0432 19.8672V25.8672C23.0432 26.7337 24.0703 27.1901 24.7134 26.6094L33.906 17.6574Z" fill="white"/>
</g>
<g filter="url(#filter1_d_4_1153)">
<path d="M8.47684 52.156C6.98618 52.156 5.81184 51.6967 4.95384 50.778L5.79884 49.608C6.54418 50.4053 7.45851 50.804 8.54184 50.804C9.12251 50.804 9.55584 50.687 9.84184 50.453C10.1365 50.219 10.2838 49.9417 10.2838 49.621C10.2838 49.2917 10.1105 49.0317 9.76384 48.841C9.41718 48.6417 8.99684 48.4857 8.50284 48.373C8.00884 48.2603 7.51051 48.126 7.00784 47.97C6.51384 47.814 6.09351 47.5497 5.74684 47.177C5.40018 46.8043 5.22684 46.3233 5.22684 45.734C5.22684 45.006 5.51718 44.4037 6.09784 43.927C6.68718 43.4417 7.44984 43.199 8.38584 43.199C9.72051 43.199 10.8038 43.602 11.6358 44.408L10.7648 45.539C10.1062 44.8803 9.26984 44.551 8.25584 44.551C7.80518 44.551 7.44551 44.6507 7.17684 44.85C6.91684 45.0407 6.78684 45.3007 6.78684 45.63C6.78684 45.8467 6.87784 46.0287 7.05984 46.176C7.25051 46.3233 7.49318 46.4447 7.78784 46.54C8.08251 46.6267 8.40751 46.7133 8.76284 46.8C9.12684 46.8867 9.48651 46.995 9.84184 47.125C10.2058 47.2463 10.5352 47.398 10.8298 47.58C11.1245 47.762 11.3628 48.0133 11.5448 48.334C11.7355 48.6547 11.8308 49.036 11.8308 49.478C11.8308 50.258 11.5492 50.8993 10.9858 51.402C10.4225 51.9047 9.58618 52.156 8.47684 52.156ZM18.8086 52H17.4436V48.048C17.4436 47.5887 17.3309 47.2637 17.1056 47.073C16.8889 46.8737 16.5769 46.774 16.1696 46.774C15.8489 46.774 15.5456 46.8563 15.2596 47.021C14.9736 47.1857 14.7396 47.385 14.5576 47.619V52H13.1926V43.329H14.5576V46.579C14.7916 46.3017 15.1036 46.0633 15.4936 45.864C15.8923 45.6647 16.3213 45.565 16.7806 45.565C18.1326 45.565 18.8086 46.228 18.8086 47.554V52ZM25.7813 52H24.4163V51.324C23.9309 51.8787 23.2549 52.156 22.3883 52.156C21.8163 52.156 21.3093 51.974 20.8673 51.61C20.4253 51.2373 20.2043 50.726 20.2043 50.076C20.2043 49.4087 20.4209 48.9017 20.8543 48.555C21.2963 48.2083 21.8076 48.035 22.3883 48.035C23.2809 48.035 23.9569 48.3037 24.4163 48.841V47.905C24.4163 47.541 24.2819 47.255 24.0133 47.047C23.7446 46.839 23.3893 46.735 22.9473 46.735C22.2453 46.735 21.6256 46.9993 21.0883 47.528L20.5293 46.579C21.2399 45.903 22.1196 45.565 23.1683 45.565C23.9396 45.565 24.5679 45.747 25.0533 46.111C25.5386 46.475 25.7813 47.0513 25.7813 47.84V52ZM22.9213 51.22C23.6059 51.22 24.1043 51.0033 24.4163 50.57V49.621C24.1043 49.1877 23.6059 48.971 22.9213 48.971C22.5313 48.971 22.2106 49.075 21.9593 49.283C21.7079 49.491 21.5823 49.764 21.5823 50.102C21.5823 50.44 21.7079 50.713 21.9593 50.921C22.2106 51.1203 22.5313 51.22 22.9213 51.22ZM28.916 52H27.551V45.721H28.916V46.644C29.1587 46.332 29.462 46.0763 29.826 45.877C30.19 45.6777 30.567 45.578 30.957 45.578V46.93C30.8357 46.904 30.6927 46.891 30.528 46.891C30.242 46.891 29.9343 46.9777 29.605 47.151C29.2843 47.3157 29.0547 47.5063 28.916 47.723V52ZM34.9568 52.156C34.0035 52.156 33.2148 51.8527 32.5908 51.246C31.9755 50.6307 31.6678 49.8333 31.6678 48.854C31.6678 47.9353 31.9668 47.1597 32.5648 46.527C33.1715 45.8857 33.9342 45.565 34.8528 45.565C35.7802 45.565 36.5255 45.8857 37.0888 46.527C37.6608 47.1683 37.9468 47.9873 37.9468 48.984V49.309H33.0978C33.1498 49.803 33.3535 50.2147 33.7088 50.544C34.0642 50.8733 34.5278 51.038 35.0998 51.038C35.4205 51.038 35.7412 50.9773 36.0618 50.856C36.3912 50.7347 36.6642 50.5657 36.8808 50.349L37.5048 51.246C36.8722 51.8527 36.0228 52.156 34.9568 52.156ZM36.6208 48.347C36.6035 47.9137 36.4432 47.528 36.1398 47.19C35.8452 46.852 35.4162 46.683 34.8528 46.683C34.3155 46.683 33.8952 46.852 33.5918 47.19C33.2885 47.5193 33.1195 47.905 33.0848 48.347H36.6208Z" fill="white"/>
</g>
</g>
<defs>
<filter id="filter0_d_4_1153" x="0.25" y="0.83" width="42.0786" height="34.8412" filterUnits="userSpaceOnUse" color-interpolation-filters="sRGB">
<feFlood flood-opacity="0" result="BackgroundImageFix"/>
<feColorMatrix in="SourceAlpha" type="matrix" values="0 0 0 0 0 0 0 0 0 0 0 0 0 0 0 0 0 0 127 0" result="hardAlpha"/>
<feOffset dy="0.33"/>
<feGaussianBlur stdDeviation="2"/>
<feColorMatrix type="matrix" values="0 0 0 0 0 0 0 0 0 0 0 0 0 0 0 0 0 0 0.1 0"/>
<feBlend mode="normal" in2="BackgroundImageFix" result="effect1_dropShadow_4_1153"/>
<feBlend mode="normal" in="SourceGraphic" in2="effect1_dropShadow_4_1153" result="shape"/>
</filter>
<filter id="filter1_d_4_1153" x="4.95386" y="43.199" width="33.993" height="9.95703" filterUnits="userSpaceOnUse" color-interpolation-filters="sRGB">
<feFlood flood-opacity="0" result="BackgroundImageFix"/>
<feColorMatrix in="SourceAlpha" type="matrix" values="0 0 0 0 0 0 0 0 0 0 0 0 0 0 0 0 0 0 127 0" result="hardAlpha"/>
<feOffset dx="1" dy="1"/>
<feColorMatrix type="matrix" values="0 0 0 0 0 0 0 0 0 0 0 0 0 0 0 0 0 0 0.3 0"/>
<feBlend mode="normal" in2="BackgroundImageFix" result="effect1_dropShadow_4_1153"/>
<feBlend mode="normal" in="SourceGraphic" in2="effect1_dropShadow_4_1153" result="shape"/>
</filter>
</defs>
</svg>
